<svg xmlns="http://www.w3.org/2000/svg" viewBox="0 0 24 24"><path d="M.15 3A3.81 3.81 0 0 0 0 4v4h5.17zM3 .15l5 5V0H4a3.81 3.81 0 0 0-1 .15zM20 0h-4v5.17l5-5A3.81 3.81 0 0 0 20 0zm3.85 21a3.81 3.81 0 0 0 .15-1v-4h-5.17zm0-18l-5 5H24V4a3.81 3.81 0 0 0-.15-1zM16 24h4a3.81 3.81 0 0 0 1-.15l-5-5zM0 16v4a3.81 3.81 0 0 0 .15 1l5-5zm4 8h4v-5.17l-5 5A3.81 3.81 0 0 0 4 24z" fill="#3f53f3"/><path fill="#f56" d="M.46 21.83a4.05 4.05 0 0 0 .58.84L7.71 16H6.29zM7.71 8L1 1.33a4.05 4.05 0 0 0-.58.84L6.29 8zM16 17.71l5.83 5.83a4.05 4.05 0 0 0 .84-.58L16 16.29zM21.83.46L16 6.29v1.42L22.67 1a4.05 4.05 0 0 0-.84-.54z"/><path fill="#f56" d="M14 10V0h-4v10H0v4h10v10h4V14h10v-4H14z"/><path d="M18.83 8l5-5a3.94 3.94 0 0 0-1.16-2L16 7.71V6.29L21.83.46A3.77 3.77 0 0 0 21 .15l-5 5V0h-2v10h10V8zM8 5.17l-5-5a3.94 3.94 0 0 0-2 1.16L7.71 8H6.29L.46 2.17A3.77 3.77 0 0 0 .15 3l5 5H0v2h10V0H8zM14 14v10h2v-5.17l5 5a3.77 3.77 0 0 0 .81-.31L16 17.71v-1.42L22.67 23a3.94 3.94 0 0 0 1.18-2l-5-5H24v-2zM0 14v2h5.17l-5 5a3.77 3.77 0 0 0 .31.81L6.29 16h1.42L1 22.67a3.94 3.94 0 0 0 2 1.18l5-5V24h2V14z" fill="#fff"/></svg>